<svg id="esDzvHdEw7j1" xmlns="http://www.w3.org/2000/svg" viewBox="0 0 60.5 66.18" shape-rendering="geometricPrecision" text-rendering="geometricPrecision"><g id="esDzvHdEw7j2" transform="matrix(1 0 0 1 -0.04 0.000947)"><path id="esDzvHdEw7j3" d="M60.33,36.44C60.3,52,48.61,64.74,33.76,66C33.76,66,14.69,66.49,8.37,65.93C6.019075,65.642364,4.003319,64.115276,3.09,61.93C3.968432,62.357324,4.917151,62.62161,5.89,62.71C7.96,62.89,11.49,62.98,16.41,62.98C23.64,62.98,31.48,62.78,31.56,62.78L31.7,62.78C39.563323,62.105827,46.873456,58.457913,52.14,52.58C56.648058,47.591643,59.495851,41.326498,60.29,34.65C60.32,35.22,60.33,35.83,60.33,36.44Z" transform="matrix(1 0 0 1 0 -0.000913)" fill="rgb(119,119,119)" stroke="none" stroke-width="1" stroke-miterlimit="1"/><path id="esDzvHdEw7j4" d="M58,29.95C58,45.51,46.28,58.24,31.43,59.48C31.43,59.48,12.36,59.98,6.04,59.42C2.65,59.12,0.11,55.87,0.04,52.28L0.1,7.33C0.2,3.74,2.75,0.5,6.15,0.22C12.48,-0.31,31.54,0.28,31.54,0.28C46.38,1.6,58,14.39,58,29.95Z" transform="matrix(1 0 0 1 0 -0.000913)" fill="rgb(119,119,119)" stroke="none" stroke-width="1" stroke-miterlimit="1"/></g></svg>